<?xml version="1.0" standalone="no"?>
<!DOCTYPE svg PUBLIC "-//W3C//DTD SVG 20010904//EN"
 "http://www.w3.org/TR/2001/REC-SVG-20010904/DTD/svg10.dtd">
<svg version="1.0" xmlns="http://www.w3.org/2000/svg"
 width="1086.000000pt" height="1086.000000pt" viewBox="0 0 1086.000000 1086.000000"
 preserveAspectRatio="xMidYMid meet">
<metadata>
Created by potrace 1.14, written by Peter Selinger 2001-2017
</metadata>
<g transform="translate(0.000000,1086.000000) scale(0.100000,-0.100000)"
fill="#000000" stroke="none">
<path d="M4895 10804 c-77 -39 -167 -86 -325 -170 -19 -11 -37 -22 -40 -25 -3
-4 -23 -16 -45 -28 -72 -40 -99 -56 -113 -68 -7 -7 -19 -13 -27 -13 -7 0 -15
-4 -17 -8 -1 -4 -17 -17 -35 -27 -82 -51 -178 -118 -181 -126 -2 -5 -8 -9 -14
-9 -11 0 -247 -175 -264 -196 -6 -8 -14 -14 -18 -14 -4 0 -13 -6 -20 -12 -7
-7 -34 -31 -61 -53 -27 -22 -59 -49 -71 -60 -12 -11 -53 -47 -91 -80 -72 -64
-387 -377 -439 -438 -161 -186 -302 -360 -387 -477 -66 -92 -137 -196 -137
-202 0 -4 -6 -13 -13 -20 -7 -7 -31 -42 -52 -78 -22 -36 -42 -67 -45 -70 -3
-3 -11 -16 -19 -30 -8 -14 -36 -62 -63 -108 -26 -46 -48 -87 -48 -92 0 -5 -3
-10 -8 -12 -4 -1 -25 -39 -47 -83 -22 -44 -43 -81 -47 -83 -5 -2 -8 -7 -8 -12
0 -4 -26 -63 -59 -131 -72 -152 -139 -306 -147 -334 -1 -5 -11 -30 -22 -55
-21 -49 -33 -79 -38 -95 -2 -5 -30 -88 -63 -182 -33 -95 -57 -173 -54 -173 3
0 1 -6 -5 -12 -8 -11 -23 -63 -24 -85 0 -5 -4 -15 -9 -24 -4 -9 -10 -27 -13
-40 -3 -13 -19 -76 -36 -139 -17 -63 -33 -128 -36 -145 -3 -16 -9 -47 -15 -68
-6 -21 -12 -50 -14 -65 -2 -15 -11 -63 -19 -107 -27 -134 -35 -178 -41 -225
-3 -25 -7 -56 -10 -69 -2 -13 -7 -49 -10 -79 -3 -30 -7 -67 -9 -81 -9 -54 -20
-171 -33 -336 -7 -99 -7 -766 0 -855 3 -36 8 -99 12 -140 3 -41 8 -91 10 -110
3 -19 7 -57 10 -85 3 -27 8 -63 11 -80 4 -16 8 -48 9 -70 2 -22 4 -40 5 -40 1
0 3 -15 6 -34 4 -33 7 -47 18 -100 3 -12 8 -43 11 -68 2 -24 7 -48 10 -52 2
-5 7 -23 9 -42 3 -19 19 -92 36 -164 17 -71 33 -143 35 -158 3 -16 7 -33 10
-38 5 -7 31 -97 39 -134 5 -24 79 -253 93 -290 8 -22 21 -60 29 -85 8 -25 20
-56 26 -70 6 -14 14 -34 18 -45 5 -11 14 -36 21 -55 8 -19 14 -37 14 -40 1 -3
9 -20 18 -37 10 -18 17 -35 17 -38 0 -3 11 -30 25 -61 14 -31 25 -58 25 -60 0
-9 172 -356 203 -410 31 -54 73 -128 101 -179 28 -51 111 -180 118 -183 5 -2
8 -8 8 -13 0 -15 263 -386 290 -409 3 -3 35 -41 70 -85 36 -44 72 -87 80 -96
8 -9 50 -55 93 -102 135 -149 360 -367 487 -472 25 -21 47 -40 50 -44 3 -4 25
-22 50 -41 55 -43 61 -47 132 -104 31 -25 61 -46 66 -46 6 0 12 -4 14 -8 7
-18 377 -262 397 -262 4 0 13 -6 19 -12 22 -22 476 -258 496 -258 3 0 33 -13
66 -29 33 -16 73 -32 88 -36 l27 -5 -2 487 c0 269 -2 493 -2 499 -1 6 -45 38
-98 70 -54 32 -100 61 -103 64 -3 3 -65 45 -137 94 -73 49 -141 97 -152 108
-11 10 -24 18 -28 18 -5 0 -16 8 -25 18 -9 9 -23 22 -30 27 -7 6 -31 23 -53
40 -48 36 -65 50 -165 135 -188 160 -427 401 -566 570 -16 19 -33 40 -39 46
-17 19 -110 138 -140 180 -11 15 -26 33 -33 40 -6 7 -12 16 -12 21 -1 4 -14
24 -30 43 -17 19 -30 38 -30 43 0 4 -9 17 -20 29 -11 12 -20 28 -20 35 0 7 -5
13 -10 13 -6 0 -15 10 -20 23 -10 23 -31 58 -40 67 -8 8 -29 43 -43 70 -7 14
-25 44 -40 67 -15 24 -27 47 -27 52 0 5 -4 11 -8 13 -12 5 -242 474 -242 494
0 3 -7 20 -15 37 -43 94 -174 488 -191 577 -3 14 -9 39 -15 56 -5 17 -11 40
-13 50 -3 10 -16 78 -31 149 -15 72 -28 143 -31 159 -2 15 -5 35 -8 45 -3 9
-7 39 -11 66 -3 28 -8 66 -10 85 -3 19 -7 58 -10 85 -3 28 -7 66 -9 85 -15
106 -21 279 -21 560 1 333 8 463 40 718 2 20 10 71 16 112 7 41 13 84 14 95 1
11 5 36 8 55 4 19 9 47 12 63 3 15 7 38 10 52 3 14 7 37 10 53 6 39 35 168 52
232 7 30 16 66 19 80 7 36 33 126 56 195 11 33 22 71 24 85 3 13 10 30 16 37
6 7 8 13 5 13 -9 0 101 294 156 420 9 19 17 40 18 45 3 12 88 188 126 260 69
132 95 179 167 299 118 196 322 485 383 543 13 12 23 26 23 30 0 4 17 27 38
49 20 23 73 81 117 129 122 135 258 268 390 380 39 33 72 63 75 66 3 3 48 37
100 76 52 39 109 83 126 97 18 14 35 26 39 26 4 0 24 13 44 28 20 16 79 55
131 88 102 63 116 72 207 121 108 59 97 -9 97 562 1 439 -1 501 -14 500 -8 0
-55 -20 -105 -45z"/>
<path d="M8393 9142 l-41 -3 -1 -1477 c0 -812 0 -1489 -1 -1504 l0 -27 -1867
0 c-1028 0 -1885 0 -1905 -1 l-38 0 0 -420 0 -420 1905 0 1905 0 0 -27 c1 -16
1 -812 1 -1770 0 -1305 3 -1745 12 -1750 6 -4 213 -7 459 -8 l447 0 0 3703 c0
2036 -3 3702 -7 3703 -27 2 -835 3 -869 1z"/>
</g>
</svg>
